PathFileType	3	(X/Y/Z)	D:\minhoCalibration\240510\subject3_KPNP\preferred\preferred11.trc
DataRate	CameraRate	NumFrames	NumMarkers	Units	OrigDataRate	OrigDataStartFrame	OrigNumFrames
200.0	200.0	12	10	mm	200.0	224	126	
Frame#	Time	Left_Ankle_Outer1			Left_Ankle_Inner1			Left_Knee_Outer1			Left_Knee_Inner1			Left_Wrist1			Right_Wrist1			Right_Knee_Inner1			Right_Knee_Outer1			Right_Ankle_Inner1			Right_Ankle_Outer1			
		X1	Y1	Z1	X2	Y2	Z2	X3	Y3	Z3	X4	Y4	Z4	X5	Y5	Z5	X6	Y6	Z6	X7	Y7	Z7	X8	Y8	Z8	X9	Y9	Z9	X10	Y10	Z10	
224	1.11	-338.6434	112.58148	-500.50443	-393.65524	125.94977	-485.08469	-191.9624	516.71722	-383.47226	-282.15363	531.41321	-333.12503	-159.98178	883.55066	-596.23175	-433.23187	1088.1249	-459.36835	-311.81161	965.12823	-78.762665	-410.90015	1014.8326	-98.509224	-306.87164	900.48657	336.06223	-412.80209	934.92163	327.91513
225	1.115	-339.61319	110.76152	-501.40561	-393.94861	124.85574	-486.77084	-193.51625	516.1366	-385.87509	-282.54758	530.4436	-335.62564	-158.17038	886.12524	-595.43048	-436.49731	1085.627	-459.41434	-314.12726	958.37347	-79.681274	-412.99936	1007.1052	-96.546669	-322.26352	877.33643	328.24106	-418.69455	914.31836	325.13623
226	1.12	-340.59845	108.7652	-501.89752	-394.20908	123.18439	-487.58939	-194.07356	515.25568	-389.04077	-282.73032	529.25708	-338.28284	-156.71457	888.64362	-594.22247	-439.82452	1082.8513	-459.19687	-316.23218	951.69836	-80.731323	-415.0415	999.68823	-95.2584	-328.64142	856.67188	325.45535	-426.06009	893.31305	321.92969
227	1.125	-339.89752	107.73582	-503.73495	-394.38693	121.94961	-489.46313	-194.7659	514.43048	-392.26639	-282.74078	527.74023	-341.04599	-154.89305	891.20648	-592.86169	-443.50256	1079.8586	-459.12811	-318.25604	944.9751	-81.87986	-417.11368	992.92706	-94.67495	-334.66992	835.32733	322.65536	-432.76608	871.14777	317.63007
228	1.13	-339.5741	105.75931	-504.99017	-394.00009	119.93582	-491.00424	-195.64207	513.4231	-395.37729	-282.91544	526.27637	-343.73535	-153.25829	893.69708	-591.13788	-447.31601	1076.5859	-459.26401	-320.62527	938.26605	-82.949028	-419.45139	986.05475	-94.822746	-341.28467	814.07336	319.9646	-439.88934	848.40778	312.63223
229	1.135	-338.94119	103.76032	-505.89078	-393.49451	118.04142	-492.06958	-196.28717	512.30884	-398.64285	-283.14929	524.57483	-346.67136	-151.50674	896.00659	-589.2511	-452.19424	1072.7881	-459.79465	-322.73404	931.62439	-83.994141	-422.31192	978.80988	-95.276329	-347.91806	788.69965	310.04974	-447.11002	824.29633	306.69547
230	1.14	-337.9631	102.18228	-507.08209	-392.8681	116.50933	-493.71332	-196.70384	511.21896	-401.96887	-283.62152	523.03735	-349.57736	-149.69209	898.28326	-587.117	-456.38007	1068.4128	-460.13379	-324.98944	925.00476	-84.900307	-425.52948	972.08966	-95.843887	-355.16364	765.81006	301.11649	-454.16983	799.02014	299.60165
231	1.145	-336.845	100.32902	-508.27228	-391.85986	114.38032	-495.58881	-197.63281	510.05917	-404.78616	-284.18161	521.36224	-353.05792	-148.73285	900.06702	-584.48291	-460.41446	1063.5842	-460.51791	-327.34213	918.3808	-85.693161	-428.20621	964.63788	-96.927101	-360.86295	742.24438	293.62238	-460.52805	772.9707	291.02957
232	1.15	-335.61966	98.358765	-509.35709	-390.86349	112.52609	-497.41544	-198.16637	508.9628	-407.44653	-285.09915	519.87006	-355.94495	-146.7592	901.9765	-582.19562	-464.14227	1058.3958	-460.92514	-329.89291	911.61597	-86.381081	-431.6673	957.2207	-97.892891	-366.99213	718.00641	284.82874	-467.21692	746.42688	281.49478
233	1.155	-334.37375	96.44857	-510.70978	-389.74683	110.80467	-499.25653	-198.92831	507.98767	-409.7417	-285.75592	518.24194	-359.82111	-145.16159	903.63208	-579.79327	-467.67477	1052.9951	-461.25974	-332.5751	904.72931	-87.025047	-435.43176	949.0437	-99.114159	-372.82404	693.66705	274.724	-473.8544	719.88043	270.56357
234	1.16	-332.91803	94.633041	-511.87195	-388.62189	108.72279	-500.96451	-199.36542	507.00061	-412.06665	-287.48154	517.12817	-362.2966	-143.77664	904.90228	-577.49072	-470.83032	1047.4788	-461.73709	-335.38467	897.66345	-87.685089	-439.11948	940.62958	-100.6332	-378.58292	668.85632	263.63684	-480.41864	692.57684	258.22919
235	1.165	-331.92154	92.635674	-512.67053	-387.57455	106.73164	-502.63171	-200.6431	506.15793	-413.69946	-289.29254	515.93115	-365.43842	-142.79836	905.70538	-575.16797	-473.83365	1041.8257	-462.31796	-338.29819	890.40247	-88.358414	-443.0213	932.08484	-102.22631	-385.54837	645.59888	252.21533	-486.71924	665.75623	244.62927
